<?xml version="1.0" encoding="utf-8"?>
<!-- Generator: Adobe Illustrator 18.0.0, SVG Export Plug-In . SVG Version: 6.00 Build 0)  -->
<!DOCTYPE svg PUBLIC "-//W3C//DTD SVG 1.1//EN" "http://www.w3.org/Graphics/SVG/1.1/DTD/svg11.dtd">
<svg version="1.1" id="Calque_1" xmlns="http://www.w3.org/2000/svg" xmlns:xlink="http://www.w3.org/1999/xlink" x="0px" y="0px"
	 viewBox="0 0 44 38" enable-background="new 0 0 44 38" xml:space="preserve">
<title>De Tijd</title>
<path fill="#FFFFFF" d="M7.2,16H0.4v-0.6c0.6,0,1,0,1.2-0.3C2,14.8,2,14.5,2,8.2s0-6.6-0.4-7L0.4,1V0.4h6.8c5.5,0,8.2,2.7,8.2,7.3
	C15.4,13.1,12.4,16,7.2,16z M7.2,1.4H5.7V13c0,2,0.1,2,1.5,2c2.4,0,4.2-2,4.1-7.3C11.3,2.6,9.2,1.3,7.2,1.4L7.2,1.4z"/>
<path fill="#FFFFFF" d="M25.6,12.7L25.5,16H14.9v-0.6c0.6,0,1,0,1.2-0.3c0.4-0.3,0.4-0.6,0.4-6.9s0-6.6-0.4-7L14.9,1V0.4h10.6
	l0.1,3.3h-0.7V3.4c0-1.2-0.9-2-2.2-2h-2.5v6h1.7c1.7,0,2.2-0.4,2.3-1.9h0.7v4.8h-0.7c0-1.5-0.6-1.9-2.3-1.9h-1.7V13c0,2,0.1,2,1.5,2
	h1c1.2,0,2-0.8,2.2-2v-0.3H25.6 M13,20h-0.6v-0.4c-0.2-0.8-0.6-1.8-2.3-1.8H8.5v10.1c0,3.6,0.3,4,2,4v0.5H2.7v-0.6
	c1.7,0,2.1-0.3,2.1-3.9V17.8H3.1c-1.6,0-2,1-2.2,1.8V20H0.3v-3.3H13V20z M20.3,32.4h-7v-0.6c0.7,0,1-0.1,1.3-0.3
	c0.3-0.4,0.4-0.6,0.4-7c0-6.2,0-6.5-0.4-6.9c-0.2-0.2-0.6-0.2-1.3-0.2v-0.7h7v0.7c-0.7,0-1,0-1.2,0.2c-0.4,0.4-0.5,0.6-0.5,7
	s0,6.5,0.4,6.9c0.2,0.2,0.6,0.3,1.3,0.3L20.3,32.4z"/>
<path fill="#FFFFFF" d="M27.6,17.4c-0.7,0-1,0-1.2,0.2C26,18,26,18.2,26,24.6v7.3c0,4.8-2.3,6-5,6h-1.2v-0.5c2.2,0,2.4-1.7,2.5-5.1
	v-7.7c0-6.3,0-6.6-0.4-7l-1.2-0.2v-0.6h6.9L27.6,17.4 M35,32.4h-7v-0.6c0.8,0,1.1-0.1,1.3-0.3c0.4-0.4,0.4-0.6,0.4-7
	c0-6.2,0-6.5-0.4-6.9c-0.2-0.2-0.5-0.2-1.2-0.2v-0.7H35c5.4,0,8.2,2.8,8.2,7.3C43.2,29.5,40,32.4,35,32.4L35,32.4z M35,17.7h-1.6
	v11.7c0,2,0.1,2,1.6,2c2.3,0,4.2-1.9,4-7.2C39,19,37,17.7,35,17.7z"/>
</svg>
