<?xml version="1.0" encoding="utf-8"?>
<!-- Generator: Adobe Illustrator 18.0.0, SVG Export Plug-In . SVG Version: 6.00 Build 0)  -->
<!DOCTYPE svg PUBLIC "-//W3C//DTD SVG 1.1//EN" "http://www.w3.org/Graphics/SVG/1.1/DTD/svg11.dtd">
<svg version="1.1" id="Calque_1" xmlns="http://www.w3.org/2000/svg" xmlns:xlink="http://www.w3.org/1999/xlink" x="0px" y="0px"
	 viewBox="0 0 841.9 595.3" enable-background="new 0 0 841.9 595.3" xml:space="preserve">
<title>La Libre</title>
<path fill="#FFFFFF" d="M479.3,396.6V284.5h-33.9v4.5l9.8,4.5v112.1H489v-4.5L479.3,396.6z M182.1,357.5h-7.5
	c-4.5,32.4-18.1,37.6-46.6,37.6h-22.6V216.8H65.5v3.8l12,6v179.8h100.8l3.8-48.2V357.5z M436.4,357.5h-7.5
	c-3.8,32.4-18.1,37.6-45.1,37.6h-23.3V216.8h-39.9v3.8l12,6v179.8h100.8l3-48.2V357.5z M466.5,261.9c9,0,15-8.3,15-18.8
	c0-9.8-6-18.1-15-18.1c-7.5,0-14.3,7.5-14.3,18.1c0,10.5,6.8,18.8,15,18.8 M687.7,302.5v-18.1l-8.3-1.5c-8.3,0-18.1,7.5-27.1,30.8
	v-29.3h-33.9v4.5l9.8,4.5v112.1h33.9v-4.5l-9.8-4.5v-72.2c3.8-6.8,15-19.6,35.4-22.6 M248.3,386.8c-4.2,3.5-9.6,5.4-15,5.3
	c-8.3,0-14.3-7.5-14.3-19.6s11.3-22.6,30.1-24.8v39.1H248.3z M217.4,323.6c-5.3-19.6,6-28.6,15-28.6c8.3,0,17.3,6,17.3,21.1v24.8
	c-37.6,5.3-55.7,15.8-55.7,39.1c0,12.8,7.5,27.1,23.3,27.1c15,0,24.1-4.5,32.4-13.5v12.8h33.9v-4.5l-9.8-4.5v-75.2
	c0-25.6-17.3-36.1-33.1-36.1c-21.1,0-44.4,12-44.4,34.6c0,3,0.8,7.5,3,9.8c6-3,12-4.5,18.1-6 M552.2,398.8c-7.5,0-15-3-20.3-7.5
	v-86.5c6-3,12-4.5,18.1-4.5c21.1,0,33.9,26.3,33.9,54.2c0,36.1-20.3,45.1-31.6,45.1 M565.8,284.5c-9,0-18.1,1.5-33.9,12.8v-94.8
	h-36.9v3.8l12.8,6v186.6c10.5,5.3,30.1,9,41.4,9c43.6,0,57.9-43.6,57.9-67.7c0-36.1-16.6-54.9-41.4-54.9"/>
<path fill="#FFFFFF" d="M573.3,239.3h-1.5v9.8h1.5c3.8,0,7.5-1.5,7.5-5.3s-3-4.5-6.8-4.5 M574.1,228h-2.3v7.5c3.8,0,7.5-0.8,7.5-3.8
	C579.3,228.8,576.3,228,574.1,228 M582.3,249.9c-2.3,1.5-5.3,2.3-9,2.3h-6V225h6.8c3.8,0,9,0,9,6c0,2.3-1.5,4.5-4.5,6
	c3.8,0,6.8,3,6.8,6.8C585.3,246.1,583.8,248.4,582.3,249.9 M595.1,252.1V225h15.8l-1.5,3.8h-9.8v6.8h9l-1.5,3.8h-7.5v9h12v3.8H595.1
	z M621.4,252.1V225h4.5v23.3h11.3v3.8H621.4z M656.1,252.9c-7.5,0-11.3-6-11.3-13.5c0-8.3,3.8-15,13.5-15l7.5,1.5l-1.5,3.8l-6.8-1.5
	c-6,0-8.3,4.5-8.3,11.3c0,6,2.3,9.8,7.5,9.8l5.3-0.8v-9l4.5-0.8v11.3C664.3,251.4,660.6,252.9,656.1,252.9 M677.9,225h4.5v27.1h-4.5
	V225z M705.7,228c-5.3,0-7.5,4.5-7.5,10.5s1.5,10.5,7.5,10.5c4.5,0,7.5-3.8,7.5-10.5C713.2,234.1,711.7,228,705.7,228 M715.5,256.6
	c-2.3,0-5.3-1.5-8.3-4.5H705c-7.5,0-12-5.3-12-12.8c0-8.3,4.5-15,13.5-15c7.5,0,11.3,6.8,11.3,13.5c0,6-2.3,11.3-6.8,13.5l5.3,1.5
	h2.3v3h-3 M738.1,252.9c-7.5,0-9.8-3-9.8-11.3V225h4.5v15.8c0,4.5,0,8.3,5.3,8.3c3.8,0,6-0.8,6-7.5v-15.8h4.5v16.6
	c0,7.5-3,11.3-10.5,11.3 M759.9,252.1V225h15.8l-1.5,3.8h-9.8v6.8h9l-1.5,3.8h-7.5v9h11.3v3.8H759.9z M733.6,293.5
	c15,0,17.3,15,17.3,40.6H714c0-21.8,3-39.9,19.6-39.9 M747.1,395.1c-15,0-32.4-15-33.1-52.7h62.4c0-45.1-21.8-57.9-37.6-57.9
	c-25.6,0-50.4,19.6-50.4,64c0,30.1,15,58.7,49.7,58.7c15,0,27.8-4.5,37.6-12l-0.8-6.8c-8.3,4.5-16.6,7.5-27.8,7.5"/>
</svg>
