<?xml version="1.0" encoding="utf-8"?>
<!-- Generator: Adobe Illustrator 18.0.0, SVG Export Plug-In . SVG Version: 6.00 Build 0)  -->
<!DOCTYPE svg PUBLIC "-//W3C//DTD SVG 1.1//EN" "http://www.w3.org/Graphics/SVG/1.1/DTD/svg11.dtd">
<svg version="1.1" id="Calque_1" xmlns="http://www.w3.org/2000/svg" xmlns:xlink="http://www.w3.org/1999/xlink" x="0px" y="0px"
	 viewBox="0 0 600 150" enable-background="new 0 0 600 150" xml:space="preserve">
<title>RTBF</title>
<path fill="#FFFFFF" d="M270,125.8c-2.7-2.7-6-4-10-4h-80.6h0.2c-3.3,0-6-0.9-8-2.8s-3-4.3-3-7.4V59.8H260c3,0,6.6-0.4,9.6-3.4
	c2.7-2.6,4-5.9,4-9.7s-1.3-7.2-4.1-10c-2.8-2.7-6.1-4-10-4h-90.8v-19c-0.1-7.5-6.2-13.6-13.7-13.5c0,0,0,0,0,0
	c-3.8,0-7.2,1.3-9.9,4.1c-2.7,2.6-4.2,6.2-4.2,10v108.9c0,17.4,8.4,26,25.7,26l94-0.2c3.6,0,6.8-1.3,9.5-3.9c2.8-2.6,4.1-6,4.1-9.7
	S272.9,128.6,270,125.8 M346.6,32.7c-3.3,0-6.8,0.4-9.7,3.2c-2.7,2.6-4,6-4,9.8s1.4,7.1,4.1,9.9c2.8,2.8,6.1,4.1,10,4.1h52.2
	c3.3,0,5.8,1,7.8,3c1.9,1.9,2.8,4.4,2.8,7.5l0.2,41.5c0,3-1,5.5-3,7.3c-2,2-4.7,2.9-8,2.9h-66.6c-3.4,0-6-1-8.2-2.9
	c-2-1.8-3-4.2-3-7.3l-0.1-98c0-3.6-1.3-6.8-4-9.5c-5.3-5.4-13.9-5.6-19.4-0.3c-0.1,0.1-0.2,0.2-0.3,0.3c-2.7,2.6-4.2,6.2-4.2,10
	v108.6c0,17.5,9,26.3,26.6,26.3h91.4c17.5,0,26.4-8.7,26.4-26V58.3c0-17-8.4-25.3-25.8-25.5l-65.3-0.1H346.6z M595.9,56.7
	c2.7-2.7,4.1-6,4.1-9.8s-1.4-7.2-4.2-10c-2.6-2.8-6.2-4.3-10-4.3H483.7c-17,0.4-25.6,9-25.5,25.5l-0.6,41.3v36.8
	c0,3.7,1.4,7,4.1,9.7s6,4,9.6,4c3.8,0,7.2-1.3,9.9-4c2.8-2.9,4.2-6.1,4.2-9.7v-24.3l0.2-26.3v-19c0-4.5,2.2-6.8,6.4-6.8h94.4
	C589.7,59.8,593.1,59.4,595.9,56.7 M118.9,36.6c-2.6-2.6-5.9-3.9-10-3.9H30.8c-2-0.1-3.2-0.8-4.3-2.4c-2.6-3.7-8-5-12.3-5
	c-4.2,0-8,1.7-10.8,4.8C0.6,32.9,0,36,0,39.7v16.4v2.2v77.2c0,3.7,1.4,7,4.2,9.7c2.8,2.8,6.1,4.2,10,4.2c3.7,0,7-1.3,9.6-4
	c2.7-2.6,4-5.9,4-9.7V70.4c0-3.2,1.1-6,3-7.7c2-2,4.6-2.9,8-2.9h70.6c4,0,7.1-1.1,9.6-3.5c2.7-2.6,4.1-6.1,4-9.8
	C123,42.7,121.7,39.4,118.9,36.6"/>
<path fill="#FFFFFF" d="M566.2,97.9c0-4.2-1.5-7.8-4.7-10.6c-3-2.7-7-4.1-11-4h-26.7c-4.3,0-8,1.4-11.1,4c-3.1,2.6-4.9,6.5-4.8,10.6
	c0,4.1,1.7,7.7,4.8,10.5c3,2.7,6.8,4,11,4h26.8c4.3,0,8-1.3,11-4C564.7,105.6,566.2,102,566.2,97.9z"/>
</svg>
