<?xml version="1.0" encoding="utf-8"?>
<!-- Generator: Adobe Illustrator 18.0.0, SVG Export Plug-In . SVG Version: 6.00 Build 0)  -->
<!DOCTYPE svg PUBLIC "-//W3C//DTD SVG 1.1//EN" "http://www.w3.org/Graphics/SVG/1.1/DTD/svg11.dtd">
<svg version="1.1" id="Calque_1" xmlns="http://www.w3.org/2000/svg" xmlns:xlink="http://www.w3.org/1999/xlink" x="0px" y="0px"
	 viewBox="0 0 841.9 595.3" enable-background="new 0 0 841.9 595.3" xml:space="preserve">
<title>Trends</title>
<path fill="#FFFFFF" d="M608.7,231.9c0-7.8,6.4-14.2,14.2-14.2h0.9c4.2,0.1,8.2,1.2,11.8,3.3l0.9,12.8h-0.9
	c-3.3-12.8-11.4-13.7-13.2-13.7c-2.6-0.3-4.9,1.6-5.2,4.2c0,0,0,0,0,0c0,2.8,2.8,6.1,8.5,8.5c7.1,2.8,13.7,7.6,13.7,16.1
	c0.5,8.3-5.8,15.5-14.1,16.1c0,0,0,0-0.1,0h-0.9c-5.1,0.2-10.2-1.5-14.2-4.7c-0.5-0.3-0.8-0.8-0.9-1.4v-14.2h0.9
	c3.3,13.2,10.9,18,14.2,18c2.6,0.5,5.1-1.1,5.6-3.7c0.1-0.3,0.1-0.7,0.1-1c0-5.2-5.2-7.6-8-9C617.7,247,608.7,244.2,608.7,231.9
	L608.7,231.9z M381.7,240.4c-0.4-8.3,4-16,11.4-19.9c5.7-3,12.2-3.8,18.4-2.4V204c0.1-3.5-2-6.7-5.2-8V195
	c7.1-1.1,13.9-3.4,20.3-6.6l0.5,0.5v65.3c0,2.1,1.7,3.8,3.8,3.8l0,0h1.9c-0.1-0.8-0.1-1.6,0-2.4c-1.9-11.4,19.4-19.9,24.6-20.3
	v-10.4c0-3.3-0.9-6.6-4.7-6.1c-3.7,0.2-6.5,3.3-6.3,6.9c0,0.4,0.1,0.7,0.1,1.1c0.9,4.7-0.5,12.3-7.1,12.3s-7.1-5.7-5.7-10.4
	c1.7-4.3,5.1-7.8,9.5-9.5c5-2.3,10.6-3.2,16.1-2.8c14.2,0,13.7,11.4,13.7,15.1v22.2c-0.2,1.8,1.1,3.4,3,3.6c0.6,0.1,1.2,0,1.8-0.3
	l0.9,0.9c-3.1,3.5-7.6,5.6-12.3,5.7c-3.4-0.7-6.2-3-7.6-6.1c-4.7,4.7-20.3,11.4-25.1,2.4c-7.5,0.4-14.8,2-21.8,4.7h-0.5v-7.1
	c-3.1,3.9-7.8,6.2-12.8,6.1c-7.6,0-16.6-5.2-16.6-23.2H381.7z M452.2,257c6.1,0,4.7-6.1,4.7-9.5V238c-5.3,1.2-9.4,5.5-10.4,10.9
	C446.5,249.9,446.5,257,452.2,257z M396.8,238c0,9.5,2.4,21.3,9.9,19.9c4.7-0.9,4.7-7.1,4.7-11.4v-16.1c0-3.3-0.9-10.9-7.1-10.4
	C398.2,220.5,396.8,228.6,396.8,238z M293.2,240.4c0-12.8,9.5-23.6,20.3-23.6c10.4,0,18.4,9.5,18.9,20.3h-25.1
	c0,8,5.7,16.6,13.7,16.6c4.3,0.6,8.6-1.4,10.9-5.2h0.9c-2.4,8.6-10,14.7-18.9,15.1c-11.4,0-20.3-10.4-20.3-23.6L293.2,240.4z
	 M307,235.2h13.2c0-4.7,0-16.6-6.6-16.6s-6.6,9.5-6.6,16.1V235.2z M547.2,263.6c8.6-0.3,16.2-6,18.9-14.2l-0.9-0.9
	c-2.3,4-6.8,6.3-11.4,5.7c-8,0-14.2-8-14.2-17.5c0-16.1,7.1-17.5,9.5-17.5c1.7-0.1,3.4,0.9,4.3,2.4c0.9,2.4,0.9,3.8,0,9.5
	c-0.9,3.4,0.9,6.9,4.3,8c0.8,0.1,1.6,0.1,2.4,0c3.9-0.5,6.6-4,6.2-7.9c0,0,0-0.1,0-0.1c0.1-4-1.7-7.8-4.7-10.4
	c-3.9-2.9-8.8-4.3-13.7-3.8c-10.9,0-20.8,10.9-20.8,23.6c0,12.8,9.5,23.6,20.8,23.6L547.2,263.6z M567.6,239.9
	c0-12.8,9-23.6,20.3-23.6c10.4,0,18,9.5,18.9,20.8h-26c0,8,5.7,16.6,13.7,16.6c4.3,0.6,8.6-1.4,10.9-5.2h0.9
	c-2.4,8.6-10,14.7-18.9,15.1c-10.9,0-20.3-10.4-20.3-23.6H567.6z M580.8,235.2h13.7c0-4.7,0-16.6-6.6-16.6c-6.6,0-7.1,9.5-6.6,16.1
	L580.8,235.2z M336.3,232.4V257c0,2.1-1.7,3.8-3.8,3.8l0,0h-0.9v1.9h25.1v-1.9h-0.5c-2.1,0-3.8-1.7-3.8-3.8c0-0.2,0-0.3,0-0.5v-25.1
	c-1-3.1,0.7-6.5,3.8-7.6h2.4c5.7,0,4.7,5.7,4.7,7.6V257c0,2.1-1.7,3.8-3.8,3.8l0,0h0v1.9h23.6v-1.9l0,0c-2.1,0-3.8-1.7-3.8-3.8
	c0-0.2,0-0.3,0-0.5v-23.6c0-11.4-6.1-15.6-12.8-16.1c-5.4,0.1-10.5,2.3-14.2,6.1v-5.7l-0.5-0.5c-6.5,3.3-13.6,5.5-20.8,6.6v0.5
	c3,1.5,4.9,4.7,4.7,8L336.3,232.4z M481.5,232.4V257c0,2.1-1.7,3.8-3.8,3.8l0,0h-0.5v1.9h25.1v-1.9h-0.9c-2.1,0-3.8-1.7-3.8-3.8
	c0-0.2,0-0.3,0-0.5v-25.1c-0.9-3.3,1-6.6,4.3-7.6h1.9c5.7,0,4.7,5.7,4.7,7.6V257c0,2.1-1.7,3.8-3.8,3.8l0,0h-0.5v1.9h24.6v-1.9h-0.9
	c-2.1,0-3.8-1.7-3.8-3.8c0-0.2,0-0.3,0-0.5v-23.6c0-11.4-5.7-15.6-12.8-16.1c-5.4,0.1-10.5,2.3-14.2,6.1v-6.1
	c-6.5,3.3-13.6,5.5-20.8,6.6v0.5c3.2,1.4,5.3,4.5,5.2,8V232.4z M268.6,250.3c-0.6,6.9,4.5,13,11.4,13.7h0.9c9.5,0,13.2-3.3,15.6-7.6
	l-0.5-0.9c-1.5,3-4.9,4.4-8,3.3c-2.5-1.2-3.8-3.9-3.3-6.6V221h9.9v-3.8h-9.5v-12.8h-0.5c-5.5,6.3-11.8,11.7-18.9,16.1v0.9h2.8
	C268.6,221.5,268.6,250.3,268.6,250.3z M841.9,385.6c0,26.5-18.4,54.4-51.1,53.9c-28.4,0-42.6-9.5-51.1-16.6
	c-23.2,1.9-46,7.2-67.6,15.6l-1.4-1.4v-22.7c-10.9,13.3-27.3,20.8-44.5,20.3c-25.1,0-56.8-18-56.8-76.1c0-35.5,17-55.8,37.8-66.2
	c19.4-10,41.6-13,62.9-8.5v-47.3c0-11.7-7.1-22.2-18-26.5v-2.8c24.8-3.5,48.9-10.8,71.4-21.8l1.4,1.9v215.2
	c-0.3,7.3,5.4,13.4,12.8,13.7c0,0,0,0,0,0v-45.9h3.8c10.9,45.4,37.8,60.1,49.2,61.5c9,0,19.4-3.8,19.9-16.6
	c0.9-18-18.9-25.5-28.4-30.3c-14.7-6.6-45.9-15.6-45.4-55.3c0.5-39.7,38.3-46.8,52-46.8c14.4,0,28.5,3.6,41.1,10.4l3.8,42.6h-3.8
	c-10.9-42.6-38.8-45.4-45.4-45.4c-4.7,0-17.5,1.4-18,14.2c0,9.5,9.5,19.9,29.3,27.9c23.6,9.5,45.9,24.6,46.4,53H841.9z M675.4,377.1
	v-52.5c0-9.9-1.4-35.9-24.1-35c-22.7,0.9-26,28.9-26,59.6s8.5,70.9,35.5,65.7C676.3,411.2,675.4,392.2,675.4,377.1L675.4,377.1z
	 M406.8,386.1c-9.3,28.4-35.4,47.8-65.3,48.7c-39.3,0-70.9-35-70.9-78c0.1-9.2,1.7-18.3,4.7-27c-2.3,1.8-5.1,3-8,3.3
	c-5.2,0-10-2.7-12.8-7.1c-1.9-2.4-5.7-9.5-12.3-8.5c-9.9,0-10.9,14.2-10.9,22.2v71.4c-0.3,7.3,5.5,13.4,12.8,13.7c0.2,0,0.3,0,0.5,0
	h2.4v5.7H57.2v-5.2h3.3c13.7-0.3,24.6-11.4,24.6-25.1v-228c-14.7-1.4-52.5,6.1-80.9,65.3H0l15.1-81.8h204.8l15.1,81.8h-3.3
	c-28.4-59.6-66.2-66.2-80.4-65.3v226.6c0,6.6,0,21.3,12.8,25.1c11.8-3.8,12.8-17.5,12.8-23.6v-70c-0.1-11.9-7.7-22.5-18.9-26.5V301
	c25-3.6,49.2-11.1,71.9-22.2l1.4,1.9v25.5c0.5,0.1,1,0.1,1.4,0c7.1-15.1,20.3-25.1,33.1-25.1c12.8,0,19.9,11.8,20.3,23.6
	c0.1,1.6,0.1,3.2,0,4.7c12.2-18.3,32.4-29.5,54.4-30.3c35.5,0,62.9,29.8,66.2,67.6h-88.4c0.9,26,18.9,54.9,47.3,54.9
	c28.4,0,34.1-13.2,37.8-18L406.8,386.1z M318.3,339.7h45.9c0.5-16.1,0-54.4-22.7-53.9c-20.8,0.5-23.6,32.2-23.6,53.9H318.3z
	 M577,425.3c-7.3,0-13.2-5.9-13.2-13.2c0,0,0,0,0,0v-80.4c0-36.4-19.9-51.1-44-51.6c-18,0.3-35.3,7.4-48.2,19.9h-0.5v-18.9l-1.9-1.9
	c-22.4,10.9-46.3,18.2-70.9,21.8v2.8c10.9,4.3,18,14.8,18,26.5v81.4c0.3,7.3-5.5,13.4-12.8,13.7c-0.2,0-0.3,0-0.5,0h-2.8v5.7h86.6
	v-5.7h-2.8c-7.1-0.3-12.8-6.1-12.8-13.2v-83.7c0-6.1-2.4-23.6,17.5-25.5h3.8c19.9,0,17.5,18.9,17.5,25.5v82.8
	c0.3,7.3-5.4,13.4-12.8,13.7c0,0,0,0,0,0h-2.8v5.7h85.1v-5.2H577z"/>
</svg>
